<?xml version="1.0" encoding="UTF-8"?>
<svg width="40px" height="40px" viewBox="0 0 40 40" version="1.1" xmlns="http://www.w3.org/2000/svg" xmlns:xlink="http://www.w3.org/1999/xlink">
	<title>icon_feedback_service</title>
	<defs>
		<filter color-interpolation-filters="auto" id="filter-1">
			<feColorMatrix in="SourceGraphic" type="matrix" values="0 0 0 0 1.000000 0 0 0 0 1.000000 0 0 0 0 1.000000 0 0 0 1.000000 0"></feColorMatrix>
		</filter>
	</defs>
	<g stroke="none" stroke-width="1" fill="none" fill-rule="evenodd">
		<g transform="translate(-58.000000, -51.000000)">
			<g transform="translate(58.000000, 51.000000)" filter="url(#filter-1)">
				<g transform="translate(0.000000, 0.000000)">
					<path d="M19.7068139,0 C27.9394872,0 34.8100524,5.62101184 36.606188,13.1559402 L36.606188,13.1559402 L36.6846824,13.1514684 C38.5223739,13.1514684 40.0091495,14.5824341 39.9999576,16.3487822 L39.9999576,16.3487822 L39.9999576,22.6495027 C39.9999576,23.9418436 39.196502,25.1045031 37.9636788,25.5963976 C36.6108054,32.8272457 30.1280946,37.4823558 22.0431755,38.1173468 C21.655321,39.2442322 20.5610172,40.0044327 19.3328114,39.9999805 C17.7536895,39.9999805 16.4700758,38.7881119 16.4700758,37.2945415 C16.4700758,35.8009712 17.7536895,34.5891222 19.3328114,34.5891222 C20.4963748,34.5846504 21.5491227,35.2643591 21.992385,36.3107527 C28.9783831,35.7338947 34.6207425,31.8971181 36.0059371,25.7752683 C35.1553368,25.6052246 34.4066711,25.1207778 33.9189105,24.4247945 C32.7507297,27.9574909 30.2296756,30.9222728 26.8775046,32.7154516 C26.8313315,32.7422822 26.7851583,32.7691128 26.7389852,32.7914716 C26.7205159,32.8004151 26.7020466,32.8048869 26.6789601,32.8048869 C26.6558735,32.8004151 26.6374042,32.7959434 26.6143177,32.7914716 C26.5866138,32.7825281 26.5589099,32.764641 26.531206,32.7556975 C26.4573289,32.7109798 26.4111558,32.630488 26.4111558,32.5455244 C26.4111558,32.4784479 26.4388597,32.4158431 26.4850328,32.3666537 L26.4850328,32.3666537 L26.4988848,32.3532384 C29.781796,29.4421177 29.9803405,26.5980735 29.6201899,22.4438014 C29.3062125,18.8127262 27.1129877,15.3649934 26.004832,13.8088183 L26.004832,13.8088183 L25.9263377,13.8535359 C25.8616953,13.7685724 25.7601143,13.7149111 25.6492987,13.7149111 C25.4784581,13.7149111 25.3353213,13.8356489 25.3076174,13.9966325 C25.1921845,15.0698567 24.9382322,15.8166419 24.7627742,16.1877986 C24.0193864,17.7663326 22.8004152,18.7188191 21.0135141,19.0318428 C18.2061864,19.528209 15.4127106,20.105067 12.6053829,20.6103767 C10.8554204,20.9234005 9.35479291,22.8328452 9.64568378,24.7735923 C10.3151945,29.1872269 13.3949438,32.3442948 14.2491472,32.9613988 C14.202974,32.9300964 14.1475662,32.9122093 14.0921584,32.9122093 C14.0367507,32.9122093 13.9721082,32.9748141 13.9120832,33.0463624 C13.8520581,33.1268542 13.7966503,33.2118178 13.7504771,33.3012531 C10.0473902,31.7361345 7.15695081,28.7847679 5.72558305,25.1313338 C5.13456669,25.837873 4.24342483,26.2984651 3.23685008,26.2984651 C1.44994905,26.2984651 5.56735949e-05,24.8809148 5.56735949e-05,23.1324536 L5.56735949e-05,23.1324536 L5.56735949e-05,16.8943379 C-0.00912260019,15.3694651 1.11750234,14.0592372 2.66430298,13.7819877 C4.22033825,5.93403557 11.2478922,0 19.7068139,0 Z M24.5596123,27.8725273 C24.6334894,27.7473178 24.7950954,27.6981283 24.9336149,27.7562613 C25.0721343,27.8188661 25.1367767,27.9664344 25.0906036,28.1050592 C24.4026236,30.166544 22.4217953,31.5662073 20.1870147,31.5662073 C18.4185829,31.5617355 16.7424975,30.6494949 15.8005651,29.1827552 C15.7220708,29.0620174 15.7497747,28.9010338 15.8605902,28.8115985 C15.9760231,28.7221631 16.1376291,28.7221631 16.2484447,28.8160702 C16.2576793,28.820542 17.2180809,29.6075731 19.3651326,29.6075731 C19.8083948,29.6075731 20.2562744,29.5762707 20.6949194,29.5181377 C23.7654341,29.1156787 24.5503777,27.8859426 24.5596123,27.8725273 Z M19.7114312,2.75908059 C12.5361232,2.75908059 6.58440371,7.85242386 5.3792844,14.5511317 C5.50395192,14.6539823 5.6193848,14.7702483 5.73020037,14.890986 C7.85416542,9.39518367 13.3025975,5.47791527 19.7021966,5.47791527 C26.1294995,5.47791527 31.5917836,9.43095781 33.7018967,14.9625343 C33.794243,14.7836636 33.9050586,14.6137364 34.0343434,14.4527528 C32.7876683,7.80323441 26.854418,2.75908059 19.7114312,2.75908059 Z" fill="#007EE5"></path>
				</g>
			</g>
		</g>
	</g>
</svg>